<?xml version="1.0" encoding="utf-8"?>
<svg xmlns="http://www.w3.org/2000/svg"
    viewBox="0 0 200 200" onload="init()">
    <defs>
        <script type="text/javascript">
    <![CDATA[
let hourHand, minuteHand, secondHand
let start

function update(timestamp) {
    const hours = ((start + timestamp) / 3600000) % 24;
    const minutes = ((start + timestamp) / 60000) % 60;
    const seconds = Math.floor((start + timestamp) / 1000);
    const fraction = ((start + timestamp) % 1000) * 0.001;
    const z = 0.2;
    const jump = Math.min(1, Math.max(0, fraction / (1 - 2 * z) + z / (2 * z - 1)))
    rotate(hourHand, hours * 30);
    rotate(minuteHand, minutes * 6);
    rotate(secondHand, 6 * (seconds + jump));
    window.requestAnimationFrame(update);
}

function rotate(element, angle) {
    element.setAttribute('transform', 'rotate(' + angle + ', 100, 100)');
}

function init() {
    hourHand = document.getElementById('hourHand')
    minuteHand = document.getElementById('minuteHand')
    secondHand = document.getElementById('secondHand')

    const now = new Date();
    start = ((now.getHours() * 60 + now.getMinutes()) * 60 +
        now.getSeconds()) * 1000 + now.getMilliseconds();
    window.requestAnimationFrame(update);
}
    ]]>
    </script>

        <symbol id="threeHourStroke">
            <path d="M95.8 0L97.06 30L102.94 30L104.2 0" fill="darkslategray" />
        </symbol>

        <symbol id="hourStroke">
            <path d="M95.8 0L96.808 24L103.192 24L104.2 0" fill="darkslategray" />
        </symbol>

        <symbol id="minuteStroke">
            <path d="M98.2 0L98.344 8L101.656 8L101.8 0" fill="darkslategray" />
        </symbol>

        <symbol id="quarterStrokes">
            <use href="#threeHourStroke" />
            <use href="#minuteStroke" transform="rotate( 6, 100, 100)" />
            <use href="#minuteStroke" transform="rotate(12, 100, 100)" />
            <use href="#minuteStroke" transform="rotate(18, 100, 100)" />
            <use href="#minuteStroke" transform="rotate(24, 100, 100)" />
            <use href="#hourStroke" transform="rotate(30, 100, 100)" />
            <use href="#minuteStroke" transform="rotate(36, 100, 100)" />
            <use href="#minuteStroke" transform="rotate(42, 100, 100)" />
            <use href="#minuteStroke" transform="rotate(48, 100, 100)" />
            <use href="#minuteStroke" transform="rotate(54, 100, 100)" />
            <use href="#hourStroke" transform="rotate(60, 100, 100)" />
            <use href="#minuteStroke" transform="rotate(66, 100, 100)" />
            <use href="#minuteStroke" transform="rotate(72, 100, 100)" />
            <use href="#minuteStroke" transform="rotate(78, 100, 100)" />
            <use href="#minuteStroke" transform="rotate(84, 100, 100)" />
        </symbol>

        <clipPath id="dialCircle">
            <circle cx="100" cy="100" r="100" />
        </clipPath>
    </defs>

    <g clip-path="url(#dialCircle)">
        <use href="#quarterStrokes" />
        <use href="#quarterStrokes" transform="rotate( 90, 100, 100)" />
        <use href="#quarterStrokes" transform="rotate(180, 100, 100)" />
        <use href="#quarterStrokes" transform="rotate(270, 100, 100)" />
    </g>

    <g id="hourHand">
        <path
            d="m 100,40 c -3.333333,8.333333 -6.666667,16.666667 -10,25 h 8 v 34 h 4 V 65 h 8 c -3.33333,-8.333333 -6.66667,-16.666667 -10,-25 z"
            stroke="none" fill="black" />
    </g>

    <g id="minuteHand">
        <path d="M 99.5 4 100.5 4 104 50 102 99 98 99 96 50 z" stroke="none" fill="black" />
    </g>

    <g id="secondHand">
        <path
            d="M 99 4 L 98.386719 33.109375 A 12 12 0 0 0 88 45 A 12 12 0 0 0 97.888672 56.8125 L 97 99 L 103 99 L 102.11133 56.8125 A 12 12 0 0 0 112 45 A 12 12 0 0 0 101.61328 33.109375 L 101 4 L 99 4 z M 99.886719 36.5 A 8.5 8.5 0 0 1 100 36.5 A 8.5 8.5 0 0 1 108.5 45 A 8.5 8.5 0 0 1 100 53.5 A 8.5 8.5 0 0 1 91.5 45 A 8.5 8.5 0 0 1 99.886719 36.5 z"
            stroke="none" fill="firebrick" />
    </g>

    <g id="axisCover" style="black">
        <circle id="axisCoverCircle" cx="100" cy="100" r="7" style="stroke:none" />
    </g>
</svg>